:SAMPLES-PER-SECOND 30
:FULLY-SPECIFIED
:DEGREES
1
root  79.2841 40.3455 -0.83005 171.238 -86.3555 -175.706
RightUpLeg  3.17614 -9.15395 -7.30167
RightLeg  2.73308 -5.59371 3.54091
RightFoot  0.276066 -0.161638 1.53397
RightToes  1.74622e-010 0 -3.6325e-017
Spine  4.70693 -1.49231 -1.57061
Spine1  1.83248 -2.07461 2.75102
HEad  -7.47315 4.50151 -2.04398
LeftShoulder1  1.00738 -1.9218 -11.2961
LeftArm  -14.5258 6.88761 1.34262
LeftForeArm  11.3363 -4.07402 -3.36217
LeftHand  -0.244104 0.0205437 5.32207
RightShoulder  0.719906 0.941641 8.60507
RightArm  -19.694 5.64019 -1.21392
RightForeArm  -0.977618 0.634921 4.19112
RightHand  -0.664789 0.805148 -12.5515
LeftUpLeg  5.10645 7.00578 7.63164
LeftLeg  3.14902 7.43424 -2.93797
LeftFoot  -2.88453 0.310397 -4.00552
LeftToes  -1.18267e-011 5.39559e-011 -6.19194e-012
2
root  79.2839 40.3455 -0.826057 171.44 -86.3661 -175.905
RightUpLeg  3.1645 -9.16702 -7.32583
RightLeg  2.75102 -5.58815 3.5402
RightFoot  0.274541 -0.161464 1.53127
RightToes  1.74622e-010 0 -3.6325e-017
Spine  4.61491 -1.47962 -1.69029
Spine1  1.98751 -2.10266 2.92906
HEad  -7.51679 4.45709 -2.05786
LeftShoulder1  1.02594 -1.97232 -11.4824
LeftArm  -14.4768 6.8309 1.48661
LeftForeArm  11.2598 -3.99904 -3.37943
LeftHand  -0.244104 0.0205437 5.32207
RightShoulder  0.719858 0.981316 8.52437
RightArm  -19.7082 5.61416 -1.22478
RightForeArm  -1.1172 0.588446 4.18992
RightHand  -0.674623 0.880862 -12.5874
LeftUpLeg  5.07871 7.00383 7.60859
LeftLeg  3.18834 7.44197 -2.93896
LeftFoot  -2.88385 0.303031 -3.89079
LeftToes  -1.18267e-011 5.39559e-011 -6.19194e-012
3
root  79.2822 40.3455 -0.817695 171.669 -86.3648 -176.108
RightUpLeg  3.12714 -9.18678 -7.35249
RightLeg  2.77456 -5.57883 3.53902
RightFoot  0.265475 -0.160969 1.52359
RightToes  1.74622e-010 0 -3.6325e-017
Spine  4.48674 -1.46288 -1.80857
Spine1  2.16489 -2.13118 3.13012
HEad  -7.45628 4.36943 -2.14097
LeftShoulder1  1.04542 -2.01684 -11.7057
LeftArm  -14.4418 6.71632 1.64276
LeftForeArm  11.1833 -3.89078 -3.39517
LeftHand  -0.244104 0.0205437 5.32207
RightShoulder  0.717005 1.02387 8.41856
RightArm  -19.6624 5.54922 -1.24395
RightForeArm  -1.15262 0.563784 4.20358
RightHand  -0.68323 1.02002 -12.4812
LeftUpLeg  5.03019 6.99883 7.57932
LeftLeg  3.22877 7.45838 -2.94157
LeftFoot  -2.88595 0.298949 -3.82721
LeftToes  -1.18267e-011 5.39559e-011 -6.19194e-012
4
root  79.2776 40.3455 -0.80732 171.865 -86.3422 -176.28
RightUpLeg  3.09692 -9.19955 -7.37375
RightLeg  2.78512 -5.55251 3.53355
RightFoot  0.248837 -0.161659 1.5343
RightToes  1.74622e-010 0 -3.6325e-017
Spine  4.33069 -1.41779 -1.89964
Spine1  2.36746 -2.1281 3.3151
HEad  -7.31931 4.32385 -2.30614
LeftShoulder1  1.07181 -2.11899 -11.8466
LeftArm  -14.4988 6.66483 1.69955
LeftForeArm  11.2011 -3.85142 -3.37257
LeftHand  -0.244104 0.0205437 5.32207
RightShoulder  0.701833 0.955513 8.27767
RightArm  -19.7372 5.55915 -1.21221
RightForeArm  -0.697478 0.477012 4.1488
RightHand  -0.694271 1.2661 -12.2315
LeftUpLeg  5.00156 6.99735 7.55802
LeftLeg  3.2537 7.48019 -2.94954
LeftFoot  -2.89896 0.301868 -3.87267
LeftToes  -1.18267e-011 5.39559e-011 -6.19194e-012
5
root  79.2717 40.3455 -0.796778 172.162 -86.3167 -176.565
RightUpLeg  3.07639 -9.19878 -7.39713
RightLeg  2.80424 -5.52492 3.51462
RightFoot  0.239801 -0.16399 1.57046
RightToes  1.74622e-010 0 -3.6325e-017
Spine  4.12555 -1.35181 -1.98998
Spine1  2.65988 -2.10318 3.48453
HEad  -7.32531 4.26477 -2.37381
LeftShoulder1  1.11772 -2.33093 -11.956
LeftArm  -14.5261 6.71873 1.75913
LeftForeArm  11.2289 -3.90746 -3.35619
LeftHand  -0.244104 0.0205437 5.32207
RightShoulder  0.676969 0.830314 8.14417
RightArm  -19.9262 5.61766 -1.16188
RightForeArm  -0.229125 0.346603 4.05546
RightHand  -0.717127 1.57316 -12.0935
LeftUpLeg  5.00212 7.00243 7.53553
LeftLeg  3.26181 7.50736 -2.96939
LeftFoot  -2.90936 0.303785 -3.90254
LeftToes  -1.18267e-011 5.39559e-011 -6.19194e-012
6
root  79.2659 40.3455 -0.787747 172.624 -86.2991 -177.019
RightUpLeg  3.05034 -9.19548 -7.42747
RightLeg  2.84158 -5.50714 3.48059
RightFoot  0.238847 -0.165453 1.59316
RightToes  1.74622e-010 0 -3.6325e-017
Spine  3.90768 -1.29456 -2.09186
Spine1  2.98291 -2.08429 3.63589
HEad  -7.49569 4.11233 -2.26004
LeftShoulder1  1.16541 -2.53642 -12.1138
LeftArm  -14.4604 6.76605 1.88075
LeftForeArm  11.1336 -4.02439 -3.38898
LeftHand  -0.244104 0.0205437 5.32207
RightShoulder  0.658735 0.74056 8.0324
RightArm  -20.0031 5.5987 -1.1099
RightForeArm  -0.290115 0.38679 4.04226
RightHand  -0.734745 1.73627 -12.1152
LeftUpLeg  5.02094 6.99529 7.49389
LeftLeg  3.23519 7.5506 -2.98965
LeftFoot  -2.90432 0.299855 -3.84131
LeftToes  -1.18267e-011 5.39559e-011 -6.19194e-012
7
root  79.2598 40.3452 -0.778814 173.081 -86.282 -177.464
RightUpLeg  3.0294 -9.21888 -7.47427
RightLeg  2.86765 -5.45417 3.47543
RightFoot  0.223644 -0.16584 1.59917
RightToes  1.74622e-010 0 -3.6325e-017
Spine  3.66564 -1.25202 -2.16325
Spine1  3.32788 -2.06779 3.72421
HEad  -7.57014 3.99573 -2.14904
LeftShoulder1  1.18749 -2.6186 -12.2274
LeftArm  -14.6129 6.73839 1.8703
LeftForeArm  11.0238 -4.15704 -3.35519
LeftHand  -0.244104 0.0205437 5.32207
RightShoulder  0.640307 0.636744 7.96928
RightArm  -20.0354 5.55513 -1.04571
RightForeArm  -0.317081 0.626701 4.06114
RightHand  -0.727302 1.70942 -12.038
LeftUpLeg  5.03198 6.95844 7.42963
LeftLeg  3.20919 7.61569 -2.97901
LeftFoot  -2.93001 0.293562 -3.75462
LeftToes  -1.18267e-011 5.39559e-011 -6.19194e-012
8
root  79.2543 40.3428 -0.763388 173.289 -86.2484 -177.643
RightUpLeg  3.00157 -9.29393 -7.55192
RightLeg  2.8838 -5.30624 3.53888
RightFoot  0.192447 -0.168173 1.63536
RightToes  1.74622e-010 0 -3.6325e-017
Spine  3.48046 -1.23659 -2.16011
Spine1  3.55743 -2.06444 3.74989
HEad  -7.34205 4.14927 -2.25682
LeftShoulder1  1.18232 -2.55568 -12.3531
LeftArm  -15.3117 6.75631 1.67368
LeftForeArm  11.1609 -4.40458 -3.11235
LeftHand  -0.244104 0.0205437 5.32207
RightShoulder  0.624126 0.512968 8.05187
RightArm  -20.3514 5.64441 -0.971394
RightForeArm  0.157368 0.89429 3.97172
RightHand  -0.721916 1.68196 -11.9976
LeftUpLeg  4.97344 6.90641 7.35663
LeftLeg  3.2945 7.70645 -2.92098
LeftFoot  -3.06415 0.288335 -3.73045
LeftToes  -1.18267e-011 5.39559e-011 -6.19194e-012
9
root  79.2524 40.3362 -0.735528 173.365 -86.15 -177.655
RightUpLeg  2.89421 -9.40669 -7.65913
RightLeg  2.95991 -5.03592 3.64593
RightFoot  0.168887 -0.172699 1.70559
RightToes  1.74622e-010 0 -3.6325e-017
Spine  3.47903 -1.26122 -2.07547
Spine1  3.48633 -2.08241 3.71318
HEad  -6.98419 4.49583 -2.49012
LeftShoulder1  1.15909 -2.34004 -12.703
LeftArm  -16.5279 6.96815 1.35096
LeftForeArm  11.6179 -5.11078 -2.70029
LeftHand  -0.244104 0.0205437 5.32207
RightShoulder  0.634919 0.499222 8.41118
RightArm  -21.0191 5.74767 -0.716337
RightForeArm  -0.309007 1.40457 3.85682
RightHand  -0.779287 1.71357 -12.8755
LeftUpLeg  4.79755 6.85738 7.26973
LeftLeg  3.55679 7.87612 -2.82086
LeftFoot  -3.31529 0.285087 -3.77988
LeftToes  -1.18267e-011 5.39559e-011 -6.19194e-012
10
root  79.2561 40.3281 -0.696276 173.87 -85.9057 -178.074
RightUpLeg  2.6698 -9.49919 -7.7751
RightLeg  3.14213 -4.63183 3.7074
RightFoot  0.139736 -0.178451 1.78321
RightToes  1.74622e-010 0 -3.6325e-017
Spine  3.64048 -1.28815 -1.96679
Spine1  3.17527 -2.07905 3.59867
HEad  -6.75718 4.73427 -2.62456
LeftShoulder1  1.11428 -1.96271 -13.2944
LeftArm  -18.1409 7.48116 0.582605
LeftForeArm  12.3715 -6.74521 -2.25935
LeftHand  -0.244104 0.0205437 5.32207
RightShoulder  0.685672 0.665679 9.06623
RightArm  -21.7903 5.45619 0.194327
RightForeArm  -3.40674 2.88686 3.96505
RightHand  -0.94661 1.81738 -15.3342
LeftUpLeg  4.55731 6.7924 7.12236
LeftLeg  3.9421 8.22368 -2.67143
LeftFoot  -3.61467 0.282921 -3.86802
LeftToes  -1.18267e-011 5.39559e-011 -6.19194e-012
11
root  79.2638 40.3191 -0.647565 175.028 -85.4886 -179.183
RightUpLeg  2.40385 -9.52534 -7.88732
RightLeg  3.37403 -4.11543 3.66038
RightFoot  0.0661903 -0.190741 1.9135
RightToes  1.74622e-010 0 -3.6325e-017
Spine  3.6387 -1.28124 -1.78204
Spine1  3.20313 -1.98969 3.22047
HEad  -6.70313 4.83031 -2.59926
LeftShoulder1  1.03974 -1.48797 -13.7573
LeftArm  -20.372 8.44232 -1.41134
LeftForeArm  13.6082 -9.56955 -1.83387
LeftHand  -0.244104 0.0205437 5.32207
RightShoulder  0.774111 0.963192 10.0556
RightArm  -22.5829 4.48164 2.12905
RightForeArm  -7.88872 5.87139 4.36393
RightHand  -1.23846 2.37478 -18.5684
LeftUpLeg  4.35917 6.69204 6.88204
LeftLeg  4.37221 8.76763 -2.46539
LeftFoot  -3.91736 0.278965 -3.93696
LeftToes  -1.18267e-011 5.39559e-011 -6.19194e-012
12
root  79.2714 40.3072 -0.583042 176.171 -84.9877 179.661
RightUpLeg  2.19569 -9.51468 -8.00455
RightLeg  3.5595 -3.57861 3.55359
RightFoot  -0.0143411 -0.212186 2.13758
RightToes  1.74622e-010 0 -3.6325e-017
Spine  3.24467 -1.28575 -1.26898
Spine1  4.01266 -1.80416 2.27865
HEad  -6.66554 5.00487 -2.46632
LeftShoulder1  0.981803 -1.14072 -14.0872
LeftArm  -23.5421 9.97347 -4.71053
LeftForeArm  15.6615 -13.4122 -1.60956
LeftHand  -0.244104 0.0205437 5.32207
RightShoulder  0.945432 1.50385 11.7687
RightArm  -22.9947 2.76266 4.65861
RightForeArm  -10.8627 10.2654 4.89728
RightHand  -1.53856 3.3215 -20.5798
LeftUpLeg  4.23193 6.60991 6.60315
LeftLeg  4.81397 9.35482 -2.24738
LeftFoot  -4.22829 0.268519 -3.9111
LeftToes  -1.18267e-011 5.39559e-011 -6.19194e-012
